<svg xmlns="http://www.w3.org/2000/svg" version="1.1" xmlns:xlink="http://www.w3.org/1999/xlink" xmlns:svgjs="http://svgjs.dev/svgjs" width="1500" height="140" viewBox="0 0 1500 140"><g transform="matrix(1,0,0,1,-0.9090909090909918,0.7473755456390165)"><svg viewBox="0 0 396 37" data-background-color="#ffffff" preserveAspectRatio="xMidYMid meet" height="140" width="1500" xmlns="http://www.w3.org/2000/svg" xmlns:xlink="http://www.w3.org/1999/xlink"><g id="tight-bounds" transform="matrix(1,0,0,1,0.2400000000000091,-0.19752067991888111)"><svg viewBox="0 0 395.52 37.395041359837755" height="37.395041359837755" width="395.52"><g><svg viewBox="0 0 463.6693118801996 43.83832194338485" height="37.395041359837755" width="395.52"><g><rect width="3.933716531345962" height="43.83832194338485" x="53.91790809402127" y="0" fill="#0718c4" opacity="1" stroke-width="0" stroke="transparent" fill-opacity="1" class="rect-qz-0" data-fill-palette-color="primary" rx="1%" id="qz-0" data-palette-color="#0718c4"></rect></g><g transform="matrix(1,0,0,1,68.1493118801996,0.10905055209796899)"><svg viewBox="0 0 395.52 43.62022083918891" height="43.62022083918891" width="395.52"><g id="textblocktransform"><svg viewBox="0 0 395.52 43.62022083918891" height="43.62022083918891" width="395.52" id="textblock"><g><svg viewBox="0 0 395.52 43.62022083918891" height="43.62022083918891" width="395.52"><g transform="matrix(1,0,0,1,0,0)"><svg width="395.52" viewBox="1.98 -39.79 364.78999999999996 40.23" height="43.62022083918891" data-palette-color="#0718c4"><path d="M22.97-8.74L22.97 0 1.98 0 1.98-8.74 5.79-8.74 5.79-30.25 2.08-30.25 2.08-38.89 22.88-38.89Q27.66-38.89 31.36-37.85 35.06-36.82 37.17-34.38 39.28-31.93 39.28-27.66L39.28-27.66Q39.28-20.19 35.23-16.92 31.18-13.65 23.07-13.65L23.07-13.65Q21-13.65 19.43-13.89L19.43-13.89 19.43-8.74 22.97-8.74ZM21.53-30.25L19.48-30.25 19.48-21.61 20.48-21.61Q26.03-21.61 26.03-26.49L26.03-26.49Q26.03-28.3 24.8-29.27 23.58-30.25 21.53-30.25L21.53-30.25ZM52.15-28.71L52.15-28.71Q49.09-28.71 47.12-30.15 45.14-31.59 45.14-34.3L45.14-34.3Q45.14-37.01 47.12-38.4 49.09-39.79 52.19-39.79L52.19-39.79Q55.3-39.79 57.24-38.43 59.18-37.06 59.18-34.3L59.18-34.3Q59.18-31.59 57.19-30.15 55.2-28.71 52.15-28.71ZM57.98-7.35L61.13-7.35 61.13 0 43.14 0 43.14-7.35 46.29-7.35 46.29-18.6 43.14-18.6 43.14-24.61 57.98-26.15 57.98-7.35ZM79.1 0.44L79.1 0.44Q74.63 0.44 71.31-1.27L71.31-1.27Q67.96-2.95 66.11-6.05 64.25-9.16 64.25-13.35L64.25-13.35Q64.25-17.14 65.82-20.17L65.82-20.17Q67.35-23.19 70.22-24.93 73.09-26.66 76.9-26.66L76.9-26.66Q78.34-26.66 79.95-26.31 81.56-25.95 82.84-25.27 84.13-24.58 84.54-23.56L84.54-23.56 85.54-26.15 90.86-26.15 90.86-15.36 83.81-15.36Q83.61-17.31 82.66-18.41 81.71-19.51 80.29-19.51L80.29-19.51Q78.19-19.51 77.09-18.18 76-16.85 76-13.31L76-13.31Q76-10.86 76.89-9.46 77.78-8.06 79.21-7.46 80.63-6.86 82.25-6.86L82.25-6.86Q84-6.86 86.05-7.48 88.11-8.11 89.69-9.45L89.69-9.45 90.06-9.2 90.06-2.39Q90.06-2.29 88.57-1.56L88.57-1.56Q87.08-0.81 84.61-0.18 82.15 0.44 79.1 0.44ZM107.29 0.44L107.29 0.44Q97.89 0.44 97.89-9.35L97.89-9.35 97.89-18.99 93.99-18.99 93.99-26.15 97.89-26.15 97.89-31.74 109.59-34.35 109.59-26.15 114.27-26.15 114.27-18.99 109.59-18.99 109.59-10.21Q109.59-9.11 110.42-8.37 111.25-7.64 112.49-7.64L112.49-7.64Q113.4-7.64 114.27-7.79L114.27-7.79 114.27-1Q111.05 0.44 107.29 0.44ZM129.04 0.44L129.04 0.44Q121.18 0.44 121.18-9.4L121.18-9.4 121.18-18.6 118.03-18.6 118.03-25.2 132.88-26.66 132.88-9.4Q132.88-8.45 133.58-7.65 134.29-6.86 135.24-6.86L135.24-6.86Q136.34-6.86 136.97-7.6 137.59-8.35 137.59-9.45L137.59-9.45 137.59-18.6 135.24-18.6 135.24-25.2 149.28-26.66 149.28-7.35 152.43-7.35 152.43 0 137.59 0 137.59-3.81Q136.29-1.81 134.13-0.68 131.97 0.44 129.04 0.44ZM174.33-7.35L174.33 0 155.58 0 155.58-7.35 158.73-7.35 158.73-18.6 155.58-18.6 155.58-25.2 170.42-26.66 170.42-22.41Q171.2-23.63 172.72-24.6 174.23-25.56 175.95-26.11 177.67-26.66 179.04-26.66L179.04-26.66 179.04-16.31Q176.18-17.26 174.33-17.26L174.33-17.26Q171.98-17.26 171.2-15.91 170.42-14.55 170.42-12.35L170.42-12.35 170.42-7.35 174.33-7.35ZM196.57 0.44L196.57 0.44Q192.03 0.44 188.68-1.25L188.68-1.25Q185.31-2.91 183.52-6.01 181.72-9.11 181.72-13.26L181.72-13.26Q181.72-17.36 183.48-20.39L183.48-20.39Q185.21-23.39 188.39-25.02 191.56-26.66 195.83-26.66L195.83-26.66Q199.77-26.66 202.77-25.12L202.77-25.12Q205.77-23.56 207.42-20.7 209.07-17.85 209.07-14.04L209.07-14.04Q209.07-12.72 208.68-11.55L208.68-11.55 193.47-11.55Q193.47-9.25 195.2-7.87 196.93-6.49 199.37-6.49L199.37-6.49Q201.23-6.49 203.45-7.14 205.67-7.79 207.92-9.16L207.92-9.16 208.33-9.01 208.33-2.44Q205.82-1 203.17-0.28 200.52 0.44 196.57 0.44ZM193.47-16.55L193.47-16.55 193.47-15.84 199.72-15.84 199.72-16.36Q199.72-18.09 198.92-19.35 198.13-20.61 196.57-20.61L196.57-20.61Q195.27-20.61 194.37-19.32 193.47-18.04 193.47-16.55ZM253.5-30.25L249.08-30.25 239.39 0 225.08 0 216.29-30.25 212.24-30.25 212.24-38.84 233.33-38.84 233.33-30.25 230.55-30.25 235.43-12.6 239.73-30.25 236.53-30.25 236.53-38.84 253.5-38.84 253.5-30.25ZM268.07 0.44L268.07 0.44Q263.53 0.44 260.19-1.25L260.19-1.25Q256.82-2.91 255.02-6.01 253.23-9.11 253.23-13.26L253.23-13.26Q253.23-17.36 254.98-20.39L254.98-20.39Q256.72-23.39 259.89-25.02 263.07-26.66 267.34-26.66L267.34-26.66Q271.27-26.66 274.27-25.12L274.27-25.12Q277.27-23.56 278.92-20.7 280.57-17.85 280.57-14.04L280.57-14.04Q280.57-12.72 280.18-11.55L280.18-11.55 264.97-11.55Q264.97-9.25 266.7-7.87 268.44-6.49 270.88-6.49L270.88-6.49Q272.73-6.49 274.96-7.14 277.18-7.79 279.42-9.16L279.42-9.16 279.84-9.01 279.84-2.44Q277.32-1 274.67-0.28 272.03 0.44 268.07 0.44ZM264.97-16.55L264.97-16.55 264.97-15.84 271.22-15.84 271.22-16.36Q271.22-18.09 270.43-19.35 269.63-20.61 268.07-20.61L268.07-20.61Q266.78-20.61 265.87-19.32 264.97-18.04 264.97-16.55ZM303.1-7.35L303.1 0 284.35 0 284.35-7.35 287.5-7.35 287.5-18.6 284.35-18.6 284.35-25.2 299.2-26.66 299.2-22.41Q299.98-23.63 301.49-24.6 303-25.56 304.73-26.11 306.45-26.66 307.81-26.66L307.81-26.66 307.81-16.31Q304.96-17.26 303.1-17.26L303.1-17.26Q300.76-17.26 299.98-15.91 299.2-14.55 299.2-12.35L299.2-12.35 299.2-7.35 303.1-7.35ZM324.71 0.44L324.71 0.44Q319.7 0.44 315.84-2.2L315.84-2.2 315.04 0 310.5 0 310.5-9.64 315.94-9.64Q316.26-7.79 317.68-6.32 319.09-4.86 320.95-4.86L320.95-4.86Q321.65-4.86 322.18-5.25 322.7-5.64 322.7-6.54L322.7-6.54Q322.7-7.45 321.68-8.18L321.68-8.18Q320.63-8.94 318.55-9.91L318.55-9.91Q316.04-11.16 314.45-12.18L314.45-12.18Q312.84-13.21 311.67-14.88 310.5-16.55 310.5-18.9L310.5-18.9Q310.5-21.31 312.08-23.1L312.08-23.1Q313.67-24.85 316.26-25.76 318.85-26.66 321.9-26.66L321.9-26.66Q325.88-26.66 329.3-24.56L329.3-24.56 329.91-26.15 333.96-26.15 333.96-18.36 329.25-18.36Q328.64-19.95 327.49-20.85 326.34-21.75 324.8-21.75L324.8-21.75Q323-21.75 323-20.61L323-20.61Q323.02-19.82 323.95-19.26L323.95-19.26Q324.88-18.73 326.95-17.8L326.95-17.8Q328.25-17.26 329.32-16.72 330.39-16.19 331.25-15.7L331.25-15.7Q332.96-14.7 334.23-12.88 335.5-11.06 335.5-8.35L335.5-8.35Q335.5-5.47 334.01-3.52L334.01-3.52Q332.52-1.54 330.05-0.55 327.59 0.44 324.71 0.44ZM354.27 0.44L354.27 0.44Q349.73 0.44 346.38-1.25L346.38-1.25Q343.01-2.91 341.22-6.01 339.43-9.11 339.43-13.26L339.43-13.26Q339.43-17.36 341.18-20.39L341.18-20.39Q342.92-23.39 346.09-25.02 349.26-26.66 353.54-26.66L353.54-26.66Q357.47-26.66 360.47-25.12L360.47-25.12Q363.47-23.56 365.12-20.7 366.77-17.85 366.77-14.04L366.77-14.04Q366.77-12.72 366.38-11.55L366.38-11.55 351.17-11.55Q351.17-9.25 352.9-7.87 354.64-6.49 357.08-6.49L357.08-6.49Q358.93-6.49 361.15-7.14 363.38-7.79 365.62-9.16L365.62-9.16 366.04-9.01 366.04-2.44Q363.52-1 360.87-0.28 358.22 0.44 354.27 0.44ZM351.17-16.55L351.17-16.55 351.17-15.84 357.42-15.84 357.42-16.36Q357.42-18.09 356.63-19.35 355.83-20.61 354.27-20.61L354.27-20.61Q352.98-20.61 352.07-19.32 351.17-18.04 351.17-16.55Z" opacity="1" transform="matrix(1,0,0,1,0,0)" fill="#0718c4" class="wordmark-text-0" data-fill-palette-color="primary" id="text-0"></path></svg></g></svg></g></svg></g></svg></g><g transform="matrix(1,0,0,1,0,0.10905055209796899)"><svg viewBox="0 0 43.62022083918891 43.62022083918891" height="43.62022083918891" width="43.62022083918891"><g><svg xmlns="http://www.w3.org/2000/svg" xmlns:xlink="http://www.w3.org/1999/xlink" xmlns:serif="http://www.serif.com/" viewBox="4.917 4.917 90.166 90.166" version="1.1" xml:space="preserve" style="" x="0" y="0" fill-rule="evenodd" clip-rule="evenodd" stroke-linejoin="round" stroke-miterlimit="2" height="43.62022083918891" width="43.62022083918891" class="icon-icon-0" data-fill-palette-color="accent" id="icon-0"><g fill="#24a8df" data-fill-palette-color="accent"><path d="M95.083 28.5C95.083 15.484 84.516 4.917 71.5 4.917L28.5 4.917C15.484 4.917 4.917 15.484 4.917 28.5L4.917 71.5C4.917 84.516 15.484 95.083 28.5 95.083L71.5 95.083C84.516 95.083 95.083 84.516 95.083 71.5L95.083 28.5ZM90.917 28.5L90.917 71.5C90.917 82.216 82.216 90.917 71.5 90.917 71.5 90.917 28.5 90.917 28.5 90.917 17.784 90.917 9.083 82.216 9.083 71.5 9.083 71.5 9.083 28.5 9.083 28.5 9.083 17.784 17.784 9.083 28.5 9.083 28.5 9.083 71.5 9.083 71.5 9.083 82.216 9.083 90.917 17.784 90.917 28.5ZM31.017 42.917L20.6 42.917C19.45 42.917 18.517 43.85 18.517 45 18.517 46.15 19.45 47.083 20.6 47.083L31.017 47.083 31.017 72.5C31.017 73.65 31.95 74.583 33.1 74.583 34.25 74.583 35.183 73.65 35.183 72.5L35.183 47.083 45.6 47.083C46.75 47.083 47.683 46.15 47.683 45 47.683 43.85 46.75 42.917 45.6 42.917L35.183 42.917 35.183 27.5C35.183 26.35 34.25 25.417 33.1 25.417 31.95 25.417 31.017 26.35 31.017 27.5L31.017 42.917ZM59.2 70.083L79.2 70.083C80.35 70.083 81.283 69.15 81.283 68 81.283 66.85 80.35 65.917 79.2 65.917L59.2 65.917C58.05 65.917 57.117 66.85 57.117 68 57.117 69.15 58.05 70.083 59.2 70.083ZM59.2 58.083L79.2 58.083C80.35 58.083 81.283 57.15 81.283 56 81.283 54.85 80.35 53.917 79.2 53.917L59.2 53.917C58.05 53.917 57.117 54.85 57.117 56 57.117 57.15 58.05 58.083 59.2 58.083ZM59.2 46.083L79.2 46.083C80.35 46.083 81.283 45.15 81.283 44 81.283 42.85 80.35 41.917 79.2 41.917L59.2 41.917C58.05 41.917 57.117 42.85 57.117 44 57.117 45.15 58.05 46.083 59.2 46.083ZM59.2 34.083L79.2 34.083C80.35 34.083 81.283 33.15 81.283 32 81.283 30.85 80.35 29.917 79.2 29.917L59.2 29.917C58.05 29.917 57.117 30.85 57.117 32 57.117 33.15 58.05 34.083 59.2 34.083Z" fill="#24a8df" data-fill-palette-color="accent"></path></g></svg></g></svg></g></svg></g><defs></defs></svg><rect width="395.52" height="37.395041359837755" fill="none" stroke="none" visibility="hidden"></rect></g></svg></g></svg>